#Comment line ignore any data following # character 
#Hierarchical Translation and Rotation (.htr) file 
[Header]	
#Header keywords are followed by a single value 
FileType HTR		#Single word string
DataType HTRS		#Translation followed by rotation and scale data
FileVersion 1		#integer
NumSegments 25		#integer
NumFrames 4		#integer
DataFrameRate 30		#integer, data frame rate in this file
EulerRotationOrder ZYX
CalibrationUnits mm
RotationUnits Degrees
GlobalAxisofGravity Y
BoneLengthAxis Y
ScaleFactor 1.00
[SegmentNames&Hierarchy]
#CHILD	PARENT
BN_Tick_Root GLOBAL
BN_Torso BN_Tick_Root
BN_L_Leg_Front01 BN_Torso
BN_L_Leg_Rear01 BN_Torso
BN_MetalTop BN_Torso
BN_Neck BN_Torso
BN_R_Leg_Front01 BN_Torso
BN_R_Leg_Rear01 BN_Torso
BN_Sack BN_Torso
BN_L_Leg_Front02 BN_L_Leg_Front01
BN_L_Leg_Front03 BN_L_Leg_Front02
BN_L_Leg_Rear02 BN_L_Leg_Rear01
BN_L_Leg_Rear03 BN_L_Leg_Rear02
BN_Head BN_Neck
BN_Needle BN_Head
BN_R_Leg_Front02 BN_R_Leg_Front01
BN_R_Leg_Front03 BN_R_Leg_Front02
BN_R_Leg_Rear02 BN_R_Leg_Rear01
BN_R_Leg_Rear03 BN_R_Leg_Rear02
BN_SackDef01 BN_Sack
BN_SackDef02 BN_Sack
BN_SackDef03 BN_Sack
BN_SackDef04 BN_Sack
BN_SackDef05 BN_Sack
BN_SackDef06 BN_Sack
[BasePosition]
#SegmentName Tx, Ty, Tz, Rx, Ry, Rz, BoneLength
BN_Tick_Root 0.000000 0.000000 0.000000 -90.000000 0.000000 0.000000 10.000000 
BN_Torso 0.000000 0.000000 0.000000 0.000000 0.000000 0.000000 10.000000 
BN_L_Leg_Front01 0.000000 0.000000 0.000000 0.000000 0.000000 0.000000 10.000000 
BN_L_Leg_Rear01 0.000000 0.000000 0.000000 0.000000 0.000000 0.000000 10.000000 
BN_MetalTop 0.000000 0.000000 0.000000 0.000000 0.000000 0.000000 10.000000 
BN_Neck 0.000000 0.000000 0.000000 0.000000 0.000000 0.000000 10.000000 
BN_R_Leg_Front01 0.000000 0.000000 0.000000 0.000000 0.000000 0.000000 10.000000 
BN_R_Leg_Rear01 0.000000 0.000000 0.000000 0.000000 0.000000 0.000000 10.000000 
BN_Sack 0.000000 0.000000 0.000000 0.000000 0.000000 0.000000 10.000000 
BN_L_Leg_Front02 0.000000 0.000000 0.000000 0.000000 0.000000 0.000000 10.000000 
BN_L_Leg_Front03 0.000000 0.000000 0.000000 0.000000 0.000000 0.000000 10.000000 
BN_L_Leg_Rear02 0.000000 0.000000 0.000000 0.000000 0.000000 0.000000 10.000000 
BN_L_Leg_Rear03 0.000000 0.000000 0.000000 0.000000 0.000000 0.000000 10.000000 
BN_Head 0.000000 0.000000 0.000000 0.000000 0.000000 0.000000 10.000000 
BN_Needle 0.000000 0.000000 0.000000 0.000000 0.000000 0.000000 10.000000 
BN_R_Leg_Front02 0.000000 0.000000 0.000000 0.000000 0.000000 0.000000 10.000000 
BN_R_Leg_Front03 0.000000 0.000000 0.000000 0.000000 0.000000 0.000000 10.000000 
BN_R_Leg_Rear02 0.000000 0.000000 0.000000 0.000000 0.000000 0.000000 10.000000 
BN_R_Leg_Rear03 0.000000 0.000000 0.000000 0.000000 0.000000 0.000000 10.000000 
BN_SackDef01 0.000000 0.000000 0.000000 0.000000 0.000000 0.000000 10.000000 
BN_SackDef02 0.000000 0.000000 0.000000 0.000000 0.000000 0.000000 10.000000 
BN_SackDef03 0.000000 0.000000 0.000000 0.000000 0.000000 0.000000 10.000000 
BN_SackDef04 0.000000 0.000000 0.000000 0.000000 0.000000 0.000000 10.000000 
BN_SackDef05 0.000000 0.000000 0.000000 0.000000 0.000000 0.000000 10.000000 
BN_SackDef06 0.000000 0.000000 0.000000 0.000000 0.000000 0.000000 10.000000 
#Beginning of Data. Separated by tabs
#Fr	Tx	Ty	Tz	Rx	Ry	Rz	SF
[BN_Tick_Root]
157 469.599884 2067.462158 368.154114 0.000000 0.000000 -3.823522 2151.850586
158 467.653381 2058.590088 355.165833 0.000000 0.000000 -3.869215 2140.709229
159 460.428711 2026.719849 337.936798 0.000000 0.000000 -3.914907 2105.656494
160 444.122101 1955.047607 316.792297 0.000000 0.000000 -3.960599 2029.732422
[BN_Torso]
157 62.304302 -85.587151 204.612503 79.184219 9.440184 38.819500 230.376358
158 57.520260 -75.497337 216.206955 79.538902 9.332565 38.951893 236.122574
159 55.091995 -182.956909 185.013336 81.203018 9.277799 35.938904 265.966705
160 50.143997 -250.709915 154.420517 82.205704 0.053168 34.225323 298.689789
[BN_L_Leg_Front01]
157 -68.477791 10.734189 -26.804373 73.473160 79.071022 10.119350 74.316254
158 -68.477791 10.734189 -26.804373 69.500130 77.900757 9.843360 74.316254
159 -68.477791 10.734189 -26.804373 38.107296 58.832417 74.886276 74.316254
160 -68.477791 10.734189 -26.804373 -0.523979 60.465527 67.823036 74.316254
[BN_L_Leg_Rear01]
157 -72.133743 -73.994843 -18.268616 141.799225 48.804901 -40.241585 104.939293
158 -72.133743 -73.994843 -18.268616 139.666550 46.530045 -39.975204 104.939293
159 -72.133743 -73.994843 -18.268616 178.641403 52.689541 10.800760 104.939293
160 -72.133743 -73.994843 -18.268616 -152.487198 47.973660 25.595179 104.939293
[BN_MetalTop]
157 0.000008 13.737477 26.403606 89.998581 -12.929132 -90.001587 29.763546
158 0.000008 13.737477 26.403606 89.998573 -12.929121 -90.001572 29.763546
159 0.000008 13.737477 26.403606 89.998573 -12.929121 -90.001572 29.763546
160 0.000008 13.737477 26.403606 89.998581 -12.929120 -90.001572 29.763546
[BN_Neck]
157 0.000014 95.233284 10.002091 -90.003807 -65.296333 90.002632 95.757088
158 0.000014 95.233284 10.002091 -90.001015 -56.090698 89.999817 95.757088
159 0.000014 95.233284 10.002091 -89.998093 -45.612968 89.996849 95.757088
160 0.000014 95.233284 10.002091 -90.002594 -35.771351 90.005226 95.757088
[BN_R_Leg_Front01]
157 68.477768 10.734107 -26.804314 45.758018 56.179821 -95.500282 74.316193
158 68.477768 10.734107 -26.804314 46.927631 54.021366 -92.840622 74.316193
159 68.477768 10.734107 -26.804314 37.111507 75.310829 -51.735481 74.316193
160 68.477768 10.734107 -26.804314 47.655376 75.334007 -25.441395 74.316193
[BN_R_Leg_Rear01]
157 72.133751 -73.994873 -18.268644 -56.914577 24.937237 -43.632069 104.939331
158 72.133751 -73.994873 -18.268644 -57.060093 23.938238 -43.241554 104.939331
159 72.133751 -73.994873 -18.268644 -54.715275 39.210751 -23.101784 104.939331
160 72.133751 -73.994873 -18.268644 -51.355553 50.151737 -16.693245 104.939331
[BN_Sack]
157 -0.000000 -78.024918 33.657791 89.999641 8.111468 -90.000343 84.974907
158 -0.000000 -78.024918 33.657791 90.000366 3.675114 -90.001198 84.974907
159 -0.000000 -78.024918 33.657791 89.999954 -0.104205 -89.998322 84.974907
160 -0.000000 -78.024918 33.657791 90.000000 -2.606714 -90.001587 84.974907
[BN_L_Leg_Front02]
157 142.805023 -0.000015 -0.000104 -178.461060 0.609796 45.803101 142.805023
158 142.805023 -0.000015 -0.000104 -179.026489 0.544688 37.974674 142.805023
159 142.805023 -0.000015 -0.000104 -0.382710 1.077658 -168.042618 142.805023
160 142.805023 -0.000015 -0.000104 0.196054 0.234289 -86.518013 142.805023
[BN_L_Leg_Front03]
157 124.143021 -0.000045 0.000007 0.352815 0.002270 -179.670288 124.143021
158 124.143021 -0.000045 0.000007 0.352809 0.002244 -179.673874 124.143021
159 124.143021 -0.000045 0.000007 0.351309 -0.176530 156.616562 124.143021
160 124.143021 -0.000045 0.000007 0.355132 -0.449489 92.809082 124.143021
[BN_L_Leg_Rear02]
157 139.939041 0.000075 -0.000022 -0.513919 -0.003806 -113.872803 139.939041
158 139.939041 0.000075 -0.000022 -0.557876 -0.006282 -111.744293 139.939041
159 139.939041 0.000075 -0.000022 -0.043284 -0.249127 131.514465 139.939041
160 139.939041 0.000075 -0.000022 0.121751 -0.201764 81.939667 139.939041
[BN_L_Leg_Rear03]
157 142.839615 0.000179 -0.000060 0.001658 -0.001661 -179.892853 142.839615
158 142.839615 0.000179 -0.000060 0.001658 -0.001661 -179.887680 142.839615
159 142.839615 0.000179 -0.000060 0.001092 -0.002078 -145.447357 142.839615
160 142.839615 0.000179 -0.000060 0.000155 -0.002341 -97.581764 142.839615
[BN_Head]
157 57.062447 -0.000030 0.000000 0.001660 0.001660 0.003063 57.062447
158 57.062447 -0.000030 0.000000 0.001788 0.001521 9.207183 57.062447
159 57.062447 -0.000030 0.000000 0.001919 0.001352 19.684723 57.062447
160 57.062447 -0.000030 0.000000 0.002028 0.001182 29.527744 57.062447
[BN_Needle]
157 33.915264 69.677628 0.000026 0.000003 0.000030 87.896805 77.493340
158 33.915264 69.677628 0.000026 0.000003 0.000030 87.896805 77.493340
159 33.915264 69.677628 0.000027 0.000003 0.000030 87.896805 77.493340
160 33.915264 69.677628 0.000027 0.000003 0.000030 87.896805 77.493340
[BN_R_Leg_Front02]
157 142.804947 -0.000060 0.000060 3.714981 0.845673 -96.473862 142.804947
158 142.804947 -0.000060 0.000060 4.478281 0.837097 -92.399391 142.804947
159 142.804947 -0.000060 0.000060 0.257790 0.999933 159.464203 142.804947
160 142.804947 -0.000060 0.000060 -0.189678 0.249373 88.547401 142.804947
[BN_R_Leg_Front03]
157 124.143005 -0.000060 -0.000156 -0.354441 0.002271 179.671906 124.143005
158 124.143005 -0.000060 -0.000156 -0.354433 0.002240 179.676071 124.143005
159 124.143005 -0.000060 -0.000156 -0.353440 -0.206312 -152.808975 124.143005
160 124.143005 -0.000060 -0.000156 -0.353685 -0.449420 -95.324387 124.143005
[BN_R_Leg_Rear02]
157 139.939011 -0.000149 0.000015 -0.090674 -0.217275 -91.982780 139.939011
158 139.939011 -0.000149 0.000015 -0.091962 -0.216734 -91.304779 139.939011
159 139.939011 -0.000149 0.000015 -0.139158 -0.188580 -76.155724 139.939011
160 139.939011 -0.000149 0.000015 -0.233096 -0.061058 -34.853977 139.939011
[BN_R_Leg_Rear03]
157 142.839417 0.000075 0.000119 0.002311 -0.000411 110.183502 142.839417
158 142.839417 0.000075 0.000119 0.002314 -0.000395 109.370522 142.839417
159 142.839417 0.000075 0.000119 0.002347 0.000006 89.729858 142.839417
160 142.839417 0.000075 0.000119 0.001981 0.001259 25.125038 142.839417
[BN_SackDef01]
157 249.782272 -3.760844 42.949425 -128.408218 -44.374973 -11.740845 253.475800
158 249.782272 -3.760844 42.949425 -128.408218 -44.374973 -11.740845 253.475800
159 249.782272 -3.760844 42.949425 -128.408218 -44.374973 -11.740845 253.475800
160 249.782272 -3.760844 42.949425 -128.408218 -44.374973 -11.740845 253.475800
[BN_SackDef02]
157 138.789795 -62.131748 45.674385 32.077126 -27.375721 -88.781525 158.773758
158 138.789795 -62.131748 45.674385 32.077126 -27.375721 -88.781525 158.773758
159 138.789795 -62.131748 45.674385 32.077126 -27.375721 -88.781525 158.773758
160 138.789795 -62.131748 45.674385 32.077126 -27.375721 -88.781525 158.773758
[BN_SackDef03]
157 249.782272 -3.760785 -42.949661 18.144459 44.375008 -11.740894 253.475845
158 249.782272 -3.760785 -42.949661 18.144459 44.375008 -11.740894 253.475845
159 249.782272 -3.760785 -42.949661 18.144459 44.375008 -11.740894 253.475845
160 249.782272 -3.760785 -42.949661 18.144459 44.375008 -11.740894 253.475845
[BN_SackDef04]
157 138.789780 -62.131645 -45.674473 146.059982 27.375723 -88.781555 158.773743
158 138.789780 -62.131645 -45.674473 146.059982 27.375723 -88.781555 158.773743
159 138.789780 -62.131645 -45.674473 146.059982 27.375723 -88.781555 158.773743
160 138.789780 -62.131645 -45.674473 146.059982 27.375723 -88.781555 158.773743
[BN_SackDef05]
157 118.790161 46.167137 -63.831196 0.155741 51.314110 90.605110 142.537460
158 118.790161 46.167137 -63.831196 0.155741 51.314110 90.605110 142.537460
159 118.790161 46.167137 -63.831196 0.155741 51.314110 90.605110 142.537460
160 118.790161 46.167137 -63.831196 0.155741 51.314110 90.605110 142.537460
[BN_SackDef06]
157 118.790207 46.167194 63.831219 152.058487 -51.314072 90.605019 142.537537
158 118.790207 46.167194 63.831219 152.058487 -51.314072 90.605019 142.537537
159 118.790207 46.167194 63.831219 152.058487 -51.314072 90.605019 142.537537
160 118.790207 46.167194 63.831219 152.058487 -51.314072 90.605019 142.537537
